{
  "accessors": [
    {
      "bufferView": 2,
      "componentType": 5126,
      "count": 248,
      "max": [
        15.589937210083008,
        5.319068431854248,
        -4.0812702178955078
      ],
      "min": [
        -15.589941024780273,
        -2.73935866355896,
        -35.524684906005859
      ],
      "type": "VEC3"
    },
    {
      "bufferView": 2,
      "byteOffset": 2976,
      "componentType": 5126,
      "count": 248,
      "max": [
        0.96116697788238525,
        0.99999320507049561,
        1
      ],
      "min": [
        -0.96116697788238525,
        -0.99999785423278809,
        -0.9985383152961731
      ],
      "type": "VEC3"
    },
    {
      "bufferView": 3,
      "componentType": 5126,
      "count": 248,
      "max": [
        0.99998939037322998,
        0.96386855840682983,
        0.59339630603790283,
        1
      ],
      "min": [
        -0.99998939037322998,
        -0.99564743041992188,
        -0.95187783241271973,
        -1
      ],
      "type": "VEC4"
    },
    {
      "bufferView": 1,
      "componentType": 5126,
      "count": 248,
      "max": [
        0.71463245153427124,
        0.7478339672088623
      ],
      "min": [
        0.47121205925941467,
        0.00023278793378267437
      ],
      "type": "VEC2"
    },
    {
      "bufferView": 0,
      "componentType": 5125,
      "count": 648,
      "max": [
        247
      ],
      "min": [
        0
      ],
      "type": "SCALAR"
    },
    {
      "bufferView": 2,
      "byteOffset": 5952,
      "componentType": 5126,
      "count": 132,
      "max": [
        13.816923141479492,
        5.4677014350891113,
        -0.95277941226959229
      ],
      "min": [
        -13.816925048828125,
        -3.0395243167877197,
        -3.8222718238830566
      ],
      "type": "VEC3"
    },
    {
      "bufferView": 2,
      "byteOffset": 7536,
      "componentType": 5126,
      "count": 132,
      "max": [
        0.3650696873664856,
        0.19587248563766479,
        0.99650496244430542
      ],
      "min": [
        -0.3650696873664856,
        -0.19587248563766479,
        -0.99650496244430542
      ],
      "type": "VEC3"
    },
    {
      "bufferView": 3,
      "byteOffset": 3968,
      "componentType": 5126,
      "count": 132,
      "max": [
        0.050754040479660034,
        -0.98062723875045776,
        0.053826514631509781,
        1
      ],
      "min": [
        -0.05075131356716156,
        -0.99997633695602417,
        -0.19064761698246002,
        1
      ],
      "type": "VEC4"
    },
    {
      "bufferView": 1,
      "byteOffset": 1984,
      "componentType": 5126,
      "count": 132,
      "max": [
        0.901009202003479,
        0.99976730346679688
      ],
      "min": [
        0.25119039416313171,
        0.00023278793378267437
      ],
      "type": "VEC2"
    },
    {
      "bufferView": 0,
      "byteOffset": 2592,
      "componentType": 5125,
      "count": 552,
      "max": [
        131
      ],
      "min": [
        0
      ],
      "type": "SCALAR"
    },
    {
      "bufferView": 2,
      "byteOffset": 9120,
      "componentType": 5126,
      "count": 604,
      "max": [
        15.295004844665527,
        5.9854044914245605,
        -0.64784759283065796
      ],
      "min": [
        -15.295004844665527,
        -3.5821621417999268,
        -5.3981013298034668
      ],
      "type": "VEC3"
    },
    {
      "bufferView": 2,
      "byteOffset": 16368,
      "componentType": 5126,
      "count": 604,
      "max": [
        0.99990367889404297,
        1,
        0.99932527542114258
      ],
      "min": [
        -0.99990367889404297,
        -1,
        -0.99880260229110718
      ],
      "type": "VEC3"
    },
    {
      "bufferView": 3,
      "byteOffset": 6080,
      "componentType": 5126,
      "count": 604,
      "max": [
        0.79950982332229614,
        0.99962127208709717,
        1,
        1
      ],
      "min": [
        -0.79951024055480957,
        -0.037466175854206085,
        -1,
        1
      ],
      "type": "VEC4"
    },
    {
      "bufferView": 1,
      "byteOffset": 3040,
      "componentType": 5126,
      "count": 604,
      "max": [
        0.4707464873790741,
        0.73155510425567627
      ],
      "min": [
        0.00023278793378267437,
        0.00023278793378267437
      ],
      "type": "VEC2"
    },
    {
      "bufferView": 0,
      "byteOffset": 4800,
      "componentType": 5125,
      "count": 1812,
      "max": [
        603
      ],
      "min": [
        0
      ],
      "type": "SCALAR"
    }
  ],
  "asset": {
    "extras": {
      "author": "person-x (https://sketchfab.com/person-x)",
      "license": "CC-BY-4.0 (http://creativecommons.org/licenses/by/4.0/)",
      "source": "https://sketchfab.com/models/5c78f100eea749c895d69fe2ed728197",
      "title": "Glasses"
    },
    "generator": "Sketchfab-3.19.4",
    "version": "2.0"
  },
  "bufferViews": [
    {
      "buffer": 0,
      "byteLength": 12048,
      "byteOffset": 0,
      "name": "floatBufferViews",
      "target": 34963
    },
    {
      "buffer": 0,
      "byteLength": 7872,
      "byteOffset": 12048,
      "byteStride": 8,
      "name": "floatBufferViews",
      "target": 34962
    },
    {
      "buffer": 0,
      "byteLength": 23616,
      "byteOffset": 19920,
      "byteStride": 12,
      "name": "floatBufferViews",
      "target": 34962
    },
    {
      "buffer": 0,
      "byteLength": 15744,
      "byteOffset": 43536,
      "byteStride": 16,
      "name": "floatBufferViews",
      "target": 34962
    }
  ],
  "buffers": [
    {
      "byteLength": 59280,
      "uri": "glasses.bin"
    }
  ],
  "images": [
    {
      "uri": "textures/Glasses1_metallicRoughness.png"
    },
    {
      "uri": "textures/Glasses1_normal.png"
    },
    {
      "uri": "textures/Glasses1_baseColor.jpg"
    },
    {
      "uri": "textures/Glasses2_metallicRoughness.png"
    },
    {
      "uri": "textures/Glasses2_normal.png"
    },
    {
      "uri": "textures/Glasses2_baseColor.jpg"
    },
    {
      "uri": "textures/Lenses_metallicRoughness.png"
    },
    {
      "uri": "textures/Lenses_normal.png"
    },
    {
      "uri": "textures/Lenses_baseColor.jpg"
    }
  ],
  "materials": [
    {
      "doubleSided": true,
      "emissiveFactor": [
        0,
        0,
        0
      ],
      "name": "Glasses2",
      "normalTexture": {
        "index": 4,
        "scale": 1,
        "texCoord": 0
      },
      "occlusionTexture": {
        "index": 3,
        "strength": 1,
        "texCoord": 0
      },
      "pbrMetallicRoughness": {
        "baseColorFactor": [
          1,
          1,
          1,
          1
        ],
        "baseColorTexture": {
          "index": 5,
          "texCoord": 0
        },
        "metallicFactor": 1,
        "metallicRoughnessTexture": {
          "index": 3,
          "texCoord": 0
        },
        "roughnessFactor": 1
      }
    },
    {
      "alphaMode": "BLEND",
      "doubleSided": true,
      "emissiveFactor": [
        0,
        0,
        0
      ],
      "name": "Lenses",
      "normalTexture": {
        "index": 7,
        "scale": 1,
        "texCoord": 0
      },
      "occlusionTexture": {
        "index": 6,
        "strength": 1,
        "texCoord": 0
      },
      "pbrMetallicRoughness": {
        "baseColorFactor": [
          1,
          1,
          1,
          0.83536585370000005
        ],
        "baseColorTexture": {
          "index": 8,
          "texCoord": 0
        },
        "metallicFactor": 1,
        "metallicRoughnessTexture": {
          "index": 6,
          "texCoord": 0
        },
        "roughnessFactor": 1
      }
    },
    {
      "doubleSided": true,
      "emissiveFactor": [
        0,
        0,
        0
      ],
      "name": "Glasses1",
      "normalTexture": {
        "index": 1,
        "scale": 1,
        "texCoord": 0
      },
      "occlusionTexture": {
        "index": 0,
        "strength": 1,
        "texCoord": 0
      },
      "pbrMetallicRoughness": {
        "baseColorFactor": [
          1,
          1,
          1,
          1
        ],
        "baseColorTexture": {
          "index": 2,
          "texCoord": 0
        },
        "metallicFactor": 1,
        "metallicRoughnessTexture": {
          "index": 0,
          "texCoord": 0
        },
        "roughnessFactor": 1
      }
    }
  ],
  "meshes": [
    {
      "name": "Glasses_Glasses2_0",
      "primitives": [
        {
          "attributes": {
            "NORMAL": 1,
            "POSITION": 0,
            "TANGENT": 2,
            "TEXCOORD_0": 3
          },
          "indices": 4,
          "material": 0,
          "mode": 4
        }
      ]
    },
    {
      "name": "Glasses_Lenses_0",
      "primitives": [
        {
          "attributes": {
            "NORMAL": 6,
            "POSITION": 5,
            "TANGENT": 7,
            "TEXCOORD_0": 8
          },
          "indices": 9,
          "material": 1,
          "mode": 4
        }
      ]
    },
    {
      "name": "Glasses_Glasses1_0",
      "primitives": [
        {
          "attributes": {
            "NORMAL": 11,
            "POSITION": 10,
            "TANGENT": 12,
            "TEXCOORD_0": 13
          },
          "indices": 14,
          "material": 2,
          "mode": 4
        }
      ]
    }
  ],
  "nodes": [
    {
      "children": [
        1
      ],
      "name": "RootNode (gltf orientation matrix)",
      "rotation": [
        -0.70710678118654746,
        -0,
        -0,
        0.70710678118654757
      ]
    },
    {
      "children": [
        2
      ],
      "name": "RootNode (model correction matrix)"
    },
    {
      "children": [
        3
      ],
      "matrix": [
        1,
        0,
        0,
        0,
        0,
        0,
        1,
        0,
        0,
        -1,
        0,
        0,
        0,
        0,
        0,
        1
      ],
      "name": "3c96b4c605144760a4b7d953fa4e9a15.fbx"
    },
    {
      "children": [
        4
      ],
      "name": "RootNode"
    },
    {
      "children": [
        5,
        6,
        7
      ],
      "matrix": [
        9.3455562591552734,
        0,
        0,
        0,
        0,
        9.3455562591552468,
        -7.0556988371126668e-07,
        0,
        0,
        7.0556988371126668e-07,
        9.3455562591552468,
        0,
        0,
        0,
        0,
        1
      ],
      "name": "Glasses"
    },
    {
      "mesh": 0,
      "name": "Glasses_Glasses2_0"
    },
    {
      "mesh": 1,
      "name": "Glasses_Lenses_0"
    },
    {
      "mesh": 2,
      "name": "Glasses_Glasses1_0"
    }
  ],
  "samplers": [
    {
      "magFilter": 9729,
      "minFilter": 9987,
      "wrapS": 10497,
      "wrapT": 10497
    }
  ],
  "scene": 0,
  "scenes": [
    {
      "name": "OSG_Scene",
      "nodes": [
        0
      ]
    }
  ],
  "textures": [
    {
      "sampler": 0,
      "source": 0
    },
    {
      "sampler": 0,
      "source": 1
    },
    {
      "sampler": 0,
      "source": 2
    },
    {
      "sampler": 0,
      "source": 3
    },
    {
      "sampler": 0,
      "source": 4
    },
    {
      "sampler": 0,
      "source": 5
    },
    {
      "sampler": 0,
      "source": 6
    },
    {
      "sampler": 0,
      "source": 7
    },
    {
      "sampler": 0,
      "source": 8
    }
  ]
}

